<svg width="57" height="56" viewBox="0 0 57 56" fill="none" xmlns="http://www.w3.org/2000/svg">
<g filter="url(#filter0_d_3_758)">
<rect x="5.63379" y="1.99993" width="45.4617" height="45" rx="12" fill="#4F94D1"/>
</g>
<path d="M24.8123 32.9373C25.5969 32.9373 26.233 32.3077 26.233 31.5311C26.233 30.7544 25.5969 30.1248 24.8123 30.1248C24.0277 30.1248 23.3916 30.7544 23.3916 31.5311C23.3916 32.3077 24.0277 32.9373 24.8123 32.9373Z" fill="white"/>
<path d="M34.7576 32.9373C35.5422 32.9373 36.1783 32.3077 36.1783 31.5311C36.1783 30.7544 35.5422 30.1248 34.7576 30.1248C33.973 30.1248 33.3369 30.7544 33.3369 31.5311C33.3369 32.3077 33.973 32.9373 34.7576 32.9373Z" fill="white"/>
<path d="M37.2794 18.5579C37.1796 18.437 37.0539 18.3397 36.9114 18.273C36.7689 18.2062 36.6131 18.1718 36.4554 18.172H22.9435L22.6713 16.6436C22.6423 16.4808 22.5562 16.3333 22.4283 16.2271C22.3003 16.1208 22.1386 16.0626 21.9716 16.0627H19.1303C18.9419 16.0627 18.7612 16.1367 18.628 16.2686C18.4948 16.4005 18.4199 16.5793 18.4199 16.7658C18.4199 16.9523 18.4948 17.1311 18.628 17.263C18.7612 17.3948 18.9419 17.4689 19.1303 17.4689H21.3758L23.403 28.8411C23.432 29.0039 23.518 29.1513 23.646 29.2576C23.7739 29.3638 23.9356 29.4221 24.1026 29.422H35.4681C35.6565 29.422 35.8371 29.3479 35.9703 29.2161C36.1036 29.0842 36.1784 28.9054 36.1784 28.7189C36.1784 28.5324 36.1036 28.3536 35.9703 28.2217C35.8371 28.0899 35.6565 28.0158 35.4681 28.0158H24.6984L24.448 26.6095H35.1768C35.4232 26.6092 35.6618 26.5247 35.8524 26.3702C36.043 26.2157 36.1739 26.0008 36.2228 25.7618L37.5014 19.4337C37.5322 19.2805 37.5283 19.1225 37.4899 18.9711C37.4515 18.8196 37.3796 18.6785 37.2794 18.5579Z" fill="white"/>
<defs>
<filter id="filter0_d_3_758" x="0.133789" y="-6.8903e-05" width="56.4619" height="56" filterUnits="userSpaceOnUse" color-interpolation-filters="sRGB">
<feFlood flood-opacity="0" result="BackgroundImageFix"/>
<feColorMatrix in="SourceAlpha" type="matrix" values="0 0 0 0 0 0 0 0 0 0 0 0 0 0 0 0 0 0 127 0" result="hardAlpha"/>
<feOffset dy="3.5"/>
<feGaussianBlur stdDeviation="2.75"/>
<feColorMatrix type="matrix" values="0 0 0 0 0 0 0 0 0 0 0 0 0 0 0 0 0 0 0.02 0"/>
<feBlend mode="normal" in2="BackgroundImageFix" result="effect1_dropShadow_3_758"/>
<feBlend mode="normal" in="SourceGraphic" in2="effect1_dropShadow_3_758" result="shape"/>
</filter>
</defs>
</svg>
