<svg width="57" height="56" viewBox="0 0 57 56" fill="none" xmlns="http://www.w3.org/2000/svg">
<g filter="url(#filter0_d_3_785)">
<rect x="6.13672" y="1.99995" width="45" height="45" rx="12" fill="#4F94D1"/>
</g>
<path d="M21.7418 17.8181H35.9486C36.1146 17.818 36.2804 17.8284 36.445 17.8493C36.3892 17.4616 36.2546 17.0891 36.0495 16.7543C35.8443 16.4194 35.5728 16.1292 35.2512 15.901C34.9296 15.6729 34.5647 15.5116 34.1785 15.4268C33.7923 15.342 33.3927 15.3355 33.0038 15.4077L21.3201 17.3822H21.3068C20.5734 17.521 19.9212 17.9317 19.4834 18.5305C20.1429 18.0661 20.9325 17.8171 21.7418 17.8181Z" fill="white"/>
<path d="M35.9485 18.8748H21.7417C20.9884 18.8756 20.2662 19.1721 19.7335 19.6994C19.2008 20.2267 18.9012 20.9416 18.9004 21.6873V30.1248C18.9012 30.8704 19.2008 31.5853 19.7335 32.1126C20.2662 32.6399 20.9884 32.9364 21.7417 32.9373H35.9485C36.7019 32.9364 37.4241 32.6399 37.9568 32.1126C38.4894 31.5853 38.7891 30.8704 38.7899 30.1248V21.6873C38.7891 20.9416 38.4894 20.2267 37.9568 19.6994C37.4241 19.1721 36.7019 18.8756 35.9485 18.8748ZM33.8397 27.3123C33.5587 27.3123 33.2841 27.2298 33.0504 27.0753C32.8168 26.9207 32.6347 26.7011 32.5272 26.4442C32.4196 26.1872 32.3915 25.9044 32.4463 25.6317C32.5011 25.3589 32.6365 25.1083 32.8351 24.9116C33.0338 24.715 33.287 24.581 33.5625 24.5268C33.8381 24.4725 34.1238 24.5004 34.3834 24.6068C34.643 24.7132 34.8649 24.8935 35.021 25.1247C35.1771 25.356 35.2604 25.6279 35.2604 25.906C35.2604 26.279 35.1107 26.6366 34.8443 26.9004C34.5779 27.1641 34.2165 27.3123 33.8397 27.3123Z" fill="white"/>
<path d="M18.9229 24.6513V20.2787C18.9229 19.3265 19.4556 17.7299 21.3047 17.3841C22.8741 17.0927 24.428 17.0927 24.428 17.0927C24.428 17.0927 25.4491 17.7958 24.6056 17.7958C23.762 17.7958 23.7842 18.8725 24.6056 18.8725C25.4269 18.8725 24.6056 19.9052 24.6056 19.9052L21.298 23.6186L18.9229 24.6513Z" fill="white"/>
<defs>
<filter id="filter0_d_3_785" x="0.636718" y="-4.60148e-05" width="56" height="56" filterUnits="userSpaceOnUse" color-interpolation-filters="sRGB">
<feFlood flood-opacity="0" result="BackgroundImageFix"/>
<feColorMatrix in="SourceAlpha" type="matrix" values="0 0 0 0 0 0 0 0 0 0 0 0 0 0 0 0 0 0 127 0" result="hardAlpha"/>
<feOffset dy="3.5"/>
<feGaussianBlur stdDeviation="2.75"/>
<feColorMatrix type="matrix" values="0 0 0 0 0 0 0 0 0 0 0 0 0 0 0 0 0 0 0.02 0"/>
<feBlend mode="normal" in2="BackgroundImageFix" result="effect1_dropShadow_3_785"/>
<feBlend mode="normal" in="SourceGraphic" in2="effect1_dropShadow_3_785" result="shape"/>
</filter>
</defs>
</svg>
