<svg width="37" height="36" viewBox="0 0 37 36" fill="none" xmlns="http://www.w3.org/2000/svg">
<g filter="url(#filter0_d_3_705)">
<rect x="5.83594" y="2" width="25.6439" height="25" rx="6" fill="#4F94D1"/>
</g>
<path d="M16.6559 19.1874C17.0984 19.1874 17.4572 18.8377 17.4572 18.4062C17.4572 17.9747 17.0984 17.6249 16.6559 17.6249C16.2133 17.6249 15.8545 17.9747 15.8545 18.4062C15.8545 18.8377 16.2133 19.1874 16.6559 19.1874Z" fill="white"/>
<path d="M22.2652 19.1874C22.7078 19.1874 23.0666 18.8377 23.0666 18.4062C23.0666 17.9747 22.7078 17.6249 22.2652 17.6249C21.8227 17.6249 21.4639 17.9747 21.4639 18.4062C21.4639 18.8377 21.8227 19.1874 22.2652 19.1874Z" fill="white"/>
<path d="M23.687 11.1989C23.6307 11.1317 23.5598 11.0777 23.4794 11.0406C23.399 11.0035 23.3112 10.9843 23.2222 10.9845H15.6004L15.4469 10.1354C15.4306 10.0449 15.382 9.963 15.3098 9.90397C15.2377 9.84495 15.1465 9.8126 15.0523 9.81262H13.4495C13.3432 9.81262 13.2413 9.85378 13.1662 9.92703C13.091 10.0003 13.0488 10.0996 13.0488 10.2032C13.0488 10.3068 13.091 10.4062 13.1662 10.4795C13.2413 10.5527 13.3432 10.5939 13.4495 10.5939H14.7162L15.8596 16.9117C15.876 17.0022 15.9245 17.0841 15.9967 17.1431C16.0689 17.2022 16.1601 17.2345 16.2543 17.2345H22.6653C22.7716 17.2345 22.8735 17.1933 22.9486 17.1201C23.0238 17.0468 23.066 16.9475 23.066 16.8439C23.066 16.7403 23.0238 16.6409 22.9486 16.5677C22.8735 16.4944 22.7716 16.4532 22.6653 16.4532H16.5904L16.4491 15.672H22.501C22.64 15.6718 22.7746 15.6249 22.8821 15.539C22.9896 15.4532 23.0634 15.3338 23.091 15.201L23.8122 11.6854C23.8296 11.6003 23.8274 11.5126 23.8058 11.4284C23.7841 11.3443 23.7436 11.2659 23.687 11.1989Z" fill="white"/>
<defs>
<filter id="filter0_d_3_705" x="0.335937" y="-2.38419e-07" width="36.6436" height="36" filterUnits="userSpaceOnUse" color-interpolation-filters="sRGB">
<feFlood flood-opacity="0" result="BackgroundImageFix"/>
<feColorMatrix in="SourceAlpha" type="matrix" values="0 0 0 0 0 0 0 0 0 0 0 0 0 0 0 0 0 0 127 0" result="hardAlpha"/>
<feOffset dy="3.5"/>
<feGaussianBlur stdDeviation="2.75"/>
<feColorMatrix type="matrix" values="0 0 0 0 0 0 0 0 0 0 0 0 0 0 0 0 0 0 0.02 0"/>
<feBlend mode="normal" in2="BackgroundImageFix" result="effect1_dropShadow_3_705"/>
<feBlend mode="normal" in="SourceGraphic" in2="effect1_dropShadow_3_705" result="shape"/>
</filter>
</defs>
</svg>
