<svg width="37" height="36" viewBox="0 0 37 36" fill="none" xmlns="http://www.w3.org/2000/svg">
<g filter="url(#filter0_d_3_695)">
<rect x="5.85352" y="2" width="25.6439" height="25" rx="6" fill="#4F94D1"/>
</g>
<path d="M24.0239 11.1929C23.995 11.1382 23.9533 11.0909 23.9022 11.0549C23.851 11.0188 23.7919 10.9951 23.7295 10.9856C23.6672 10.9761 23.6034 10.981 23.5434 11.0001C23.4835 11.0191 23.4289 11.0517 23.3843 11.0952L21.8457 12.5962C21.7701 12.6688 21.6683 12.7094 21.5623 12.7094C21.4563 12.7094 21.3545 12.6688 21.2789 12.5962L20.6138 11.9468C20.5766 11.9105 20.5471 11.8674 20.5269 11.82C20.5068 11.7726 20.4964 11.7218 20.4964 11.6705C20.4964 11.6192 20.5068 11.5684 20.5269 11.521C20.5471 11.4736 20.5766 11.4306 20.6138 11.3943L22.1459 9.9004C22.1919 9.85563 22.2259 9.80064 22.2452 9.74018C22.2645 9.67972 22.2684 9.61559 22.2567 9.55332C22.2449 9.49106 22.2177 9.43251 22.1776 9.38273C22.1375 9.33296 22.0855 9.29344 22.0262 9.26759C20.869 8.76319 19.4245 9.02638 18.5137 9.90772C17.7399 10.6567 17.5092 11.8272 17.8814 13.1189C17.9014 13.1878 17.9016 13.2607 17.8817 13.3297C17.8619 13.3986 17.8228 13.4609 17.7689 13.5095L13.5998 17.2217C13.4374 17.3639 13.3064 17.5368 13.2148 17.7299C13.1232 17.9231 13.0729 18.1324 13.067 18.3451C13.0611 18.5578 13.0997 18.7695 13.1805 18.9672C13.2613 19.1649 13.3825 19.3445 13.5368 19.495C13.6911 19.6455 13.8753 19.7637 14.078 19.8426C14.2808 19.9214 14.4979 19.9592 14.7161 19.9535C14.9343 19.9479 15.149 19.8989 15.3472 19.8097C15.5453 19.7205 15.7228 19.5929 15.8687 19.4346L19.7173 15.3611C19.7665 15.3092 19.8292 15.2714 19.8988 15.2518C19.9684 15.2321 20.0422 15.2313 20.1122 15.2495C20.4894 15.3503 20.8785 15.4026 21.2697 15.405C22.1061 15.405 22.8401 15.1411 23.3695 14.6326C24.3499 13.6909 24.4994 12.0938 24.0239 11.1929ZM14.7565 19.1672C14.5916 19.1848 14.4251 19.152 14.2801 19.0734C14.1351 18.9948 14.0187 18.8743 13.947 18.7284C13.8752 18.5826 13.8517 18.4186 13.8796 18.2592C13.9075 18.0997 13.9855 17.9527 14.1028 17.8383C14.2201 17.7239 14.3709 17.6478 14.5345 17.6205C14.698 17.5933 14.8662 17.6162 15.0158 17.686C15.1655 17.7559 15.2891 17.8694 15.3698 18.0107C15.4505 18.152 15.4842 18.3143 15.4662 18.4751C15.4465 18.652 15.3654 18.8171 15.2363 18.9429C15.1073 19.0688 14.938 19.1479 14.7565 19.1672Z" fill="white"/>
<defs>
<filter id="filter0_d_3_695" x="0.353515" y="-2.38419e-07" width="36.6436" height="36" filterUnits="userSpaceOnUse" color-interpolation-filters="sRGB">
<feFlood flood-opacity="0" result="BackgroundImageFix"/>
<feColorMatrix in="SourceAlpha" type="matrix" values="0 0 0 0 0 0 0 0 0 0 0 0 0 0 0 0 0 0 127 0" result="hardAlpha"/>
<feOffset dy="3.5"/>
<feGaussianBlur stdDeviation="2.75"/>
<feColorMatrix type="matrix" values="0 0 0 0 0 0 0 0 0 0 0 0 0 0 0 0 0 0 0.02 0"/>
<feBlend mode="normal" in2="BackgroundImageFix" result="effect1_dropShadow_3_695"/>
<feBlend mode="normal" in="SourceGraphic" in2="effect1_dropShadow_3_695" result="shape"/>
</filter>
</defs>
</svg>
