<svg width="37" height="36" viewBox="0 0 37 36" fill="none" xmlns="http://www.w3.org/2000/svg">
<g filter="url(#filter0_d_3_715)">
<rect x="5.81836" y="2" width="25.6439" height="25" rx="6" fill="#4F94D1"/>
</g>
<path d="M24.1913 9.18465C24.1867 9.16306 24.1759 9.14319 24.1602 9.12736C24.1444 9.11154 24.1244 9.10041 24.1024 9.0953C22.6356 8.74569 19.2466 9.99154 17.4104 11.7808C17.0829 12.0975 16.7844 12.4414 16.5181 12.8087C15.9519 12.7598 15.3857 12.8006 14.9031 13.0057C13.5415 13.5899 13.1451 15.1143 13.0347 15.7701C13.0284 15.806 13.0308 15.8428 13.0416 15.8777C13.0524 15.9125 13.0713 15.9444 13.0969 15.971C13.1225 15.9975 13.1541 16.0178 13.1891 16.0304C13.2242 16.043 13.2617 16.0475 13.2989 16.0435L15.4854 15.8084C15.4869 15.9691 15.4969 16.1297 15.5152 16.2894C15.5262 16.4003 15.5767 16.504 15.6579 16.5824L16.5046 17.4058C16.5851 17.4849 16.6914 17.5342 16.8051 17.545C16.968 17.5628 17.1318 17.5725 17.2957 17.5741L17.0558 19.703C17.0518 19.7391 17.0564 19.7757 17.0694 19.8099C17.0823 19.844 17.1032 19.8748 17.1304 19.8997C17.1575 19.9247 17.1903 19.9431 17.226 19.9537C17.2617 19.9642 17.2995 19.9666 17.3363 19.9605C18.0077 19.8555 19.5741 19.4691 20.1699 18.1417C20.3802 17.6712 20.4233 17.1219 20.3747 16.5726C20.7523 16.313 21.106 16.0219 21.4318 15.7025C23.2737 13.9159 24.5444 10.6856 24.1913 9.18465ZM19.5941 13.5711C19.426 13.4073 19.3114 13.1985 19.2649 12.9711C19.2185 12.7438 19.2423 12.5081 19.3332 12.2939C19.4242 12.0798 19.5782 11.8967 19.7759 11.7679C19.9736 11.6391 20.2061 11.5703 20.4438 11.5703C20.6816 11.5703 20.9141 11.6391 21.1118 11.7679C21.3095 11.8967 21.4635 12.0798 21.5545 12.2939C21.6454 12.5081 21.6692 12.7438 21.6228 12.9711C21.5763 13.1985 21.4617 13.4073 21.2936 13.5711C21.182 13.68 21.0496 13.7664 20.9038 13.8253C20.758 13.8843 20.6017 13.9146 20.4438 13.9146C20.286 13.9146 20.1297 13.8843 19.9839 13.8253C19.8381 13.7664 19.7057 13.68 19.5941 13.5711Z" fill="white"/>
<path d="M16.4473 18.0023C16.3101 18.1364 16.0899 18.1886 15.825 18.2333C15.2297 18.3322 14.7041 17.8307 14.811 17.244C14.8518 17.0216 14.9725 16.7098 15.0476 16.6366C15.0641 16.6209 15.075 16.6006 15.0789 16.5785C15.0828 16.5564 15.0794 16.5336 15.0693 16.5135C15.0592 16.4933 15.0428 16.4768 15.0225 16.4663C15.0022 16.4557 14.979 16.4517 14.9562 16.4547C14.6234 16.4944 14.3137 16.6416 14.0765 16.8727C13.4877 17.4471 13.4321 19.5787 13.4321 19.5787C13.4321 19.5787 15.6199 19.5245 16.2086 18.9501C16.4465 18.719 16.5976 18.4167 16.6376 18.0917C16.6469 17.9896 16.5194 17.9288 16.4473 18.0023Z" fill="white"/>
<defs>
<filter id="filter0_d_3_715" x="0.318359" y="-2.38419e-07" width="36.644" height="36" filterUnits="userSpaceOnUse" color-interpolation-filters="sRGB">
<feFlood flood-opacity="0" result="BackgroundImageFix"/>
<feColorMatrix in="SourceAlpha" type="matrix" values="0 0 0 0 0 0 0 0 0 0 0 0 0 0 0 0 0 0 127 0" result="hardAlpha"/>
<feOffset dy="3.5"/>
<feGaussianBlur stdDeviation="2.75"/>
<feColorMatrix type="matrix" values="0 0 0 0 0 0 0 0 0 0 0 0 0 0 0 0 0 0 0.02 0"/>
<feBlend mode="normal" in2="BackgroundImageFix" result="effect1_dropShadow_3_715"/>
<feBlend mode="normal" in="SourceGraphic" in2="effect1_dropShadow_3_715" result="shape"/>
</filter>
</defs>
</svg>
