<svg width="37" height="36" viewBox="0 0 37 36" fill="none" xmlns="http://www.w3.org/2000/svg">
<g filter="url(#filter0_d_3_725)">
<rect x="5.80029" y="2" width="25.6439" height="25" rx="6" fill="#4F94D1"/>
</g>
<path d="M14.604 10.7879H22.6177C22.7113 10.7878 22.8048 10.7936 22.8977 10.8052C22.8662 10.5898 22.7903 10.3829 22.6746 10.1969C22.5589 10.0108 22.4057 9.8496 22.2243 9.72284C22.0429 9.59609 21.8371 9.50646 21.6192 9.45936C21.4014 9.41226 21.176 9.40866 20.9566 9.44877L14.3661 10.5457H14.3586C13.9449 10.6228 13.577 10.851 13.3301 11.1836C13.7021 10.9257 14.1475 10.7873 14.604 10.7879Z" fill="white"/>
<path d="M22.6174 11.3749H14.6037C14.1788 11.3753 13.7714 11.5401 13.4709 11.833C13.1704 12.126 13.0014 12.5231 13.001 12.9374V17.6249C13.0014 18.0391 13.1704 18.4363 13.4709 18.7292C13.7714 19.0222 14.1788 19.1869 14.6037 19.1874H22.6174C23.0424 19.1869 23.4498 19.0222 23.7502 18.7292C24.0507 18.4363 24.2197 18.0391 24.2202 17.6249V12.9374C24.2197 12.5231 24.0507 12.126 23.7502 11.833C23.4498 11.5401 23.0424 11.3753 22.6174 11.3749ZM21.4279 16.0624C21.2694 16.0624 21.1145 16.0166 20.9827 15.9307C20.8509 15.8449 20.7482 15.7229 20.6875 15.5801C20.6269 15.4373 20.611 15.2803 20.6419 15.1287C20.6728 14.9772 20.7492 14.838 20.8612 14.7287C20.9733 14.6194 21.1161 14.545 21.2716 14.5149C21.427 14.4847 21.5881 14.5002 21.7346 14.5593C21.881 14.6185 22.0062 14.7186 22.0942 14.8471C22.1823 14.9756 22.2293 15.1266 22.2293 15.2811C22.2293 15.4883 22.1448 15.687 21.9946 15.8336C21.8443 15.9801 21.6404 16.0624 21.4279 16.0624Z" fill="white"/>
<path d="M13.0137 14.5841V12.1549C13.0137 11.6259 13.3142 10.7389 14.3572 10.5468C15.2425 10.3849 16.119 10.3849 16.119 10.3849C16.119 10.3849 16.695 10.7755 16.2192 10.7755C15.7433 10.7755 15.7559 11.3737 16.2192 11.3737C16.6825 11.3737 16.2192 11.9474 16.2192 11.9474L14.3535 14.0104L13.0137 14.5841Z" fill="white"/>
<defs>
<filter id="filter0_d_3_725" x="0.300292" y="-2.38419e-07" width="36.644" height="36" filterUnits="userSpaceOnUse" color-interpolation-filters="sRGB">
<feFlood flood-opacity="0" result="BackgroundImageFix"/>
<feColorMatrix in="SourceAlpha" type="matrix" values="0 0 0 0 0 0 0 0 0 0 0 0 0 0 0 0 0 0 127 0" result="hardAlpha"/>
<feOffset dy="3.5"/>
<feGaussianBlur stdDeviation="2.75"/>
<feColorMatrix type="matrix" values="0 0 0 0 0 0 0 0 0 0 0 0 0 0 0 0 0 0 0.02 0"/>
<feBlend mode="normal" in2="BackgroundImageFix" result="effect1_dropShadow_3_725"/>
<feBlend mode="normal" in="SourceGraphic" in2="effect1_dropShadow_3_725" result="shape"/>
</filter>
</defs>
</svg>
