<svg width="583" height="174" viewBox="0 0 583 174" fill="none" xmlns="http://www.w3.org/2000/svg">
<path d="M202.12 112V82.6H208.6C211.16 82.6 213.213 82.9733 214.76 83.72C216.307 84.4667 217.427 85.5067 218.12 86.84C218.813 88.1467 219.16 89.6533 219.16 91.36C219.16 94.48 218.253 96.8933 216.44 98.6C214.627 100.28 211.88 101.12 208.2 101.12H206.64V112H202.12ZM206.64 97.16H208.32C210.08 97.16 211.413 96.88 212.32 96.32C213.227 95.76 213.84 95.0667 214.16 94.24C214.48 93.4133 214.64 92.6133 214.64 91.84C214.64 90.9067 214.467 90.04 214.12 89.24C213.773 88.44 213.173 87.7867 212.32 87.28C211.467 86.7733 210.267 86.52 208.72 86.52H206.64V97.16ZM222.072 112V93.64H226.392V97.24C226.818 96.04 227.498 95.0667 228.432 94.32C229.392 93.5467 230.498 93.16 231.752 93.16C232.605 93.16 233.192 93.24 233.512 93.4L232.912 97.76C232.672 97.6 232.152 97.52 231.352 97.52C230.685 97.52 229.965 97.6667 229.192 97.96C228.418 98.2533 227.752 98.7733 227.192 99.52C226.658 100.24 226.392 101.253 226.392 102.56V112H222.072ZM242.927 112.4C241.087 112.4 239.687 112.013 238.727 111.24C237.767 110.467 237.113 109.44 236.767 108.16C236.447 106.88 236.287 105.467 236.287 103.92V93.64H240.607V102.84C240.607 104.253 240.687 105.4 240.847 106.28C241.033 107.16 241.38 107.813 241.887 108.24C242.42 108.64 243.207 108.84 244.247 108.84C244.993 108.84 245.7 108.64 246.367 108.24C247.06 107.813 247.633 107.24 248.087 106.52C248.54 105.773 248.767 104.947 248.767 104.04V93.64H253.047V112H249.527L249.047 109.32C248.38 110.333 247.553 111.107 246.567 111.64C245.58 112.147 244.367 112.4 242.927 112.4ZM267.083 112.4C264.789 112.4 262.923 111.96 261.483 111.08C260.043 110.173 258.989 108.987 258.323 107.52C257.656 106.053 257.323 104.493 257.323 102.84C257.323 100.84 257.723 99.12 258.523 97.68C259.349 96.24 260.483 95.1333 261.923 94.36C263.363 93.56 264.989 93.16 266.803 93.16C269.709 93.16 271.829 93.9733 273.163 95.6C274.496 97.2 275.163 99.36 275.163 102.08C275.163 102.8 275.123 103.547 275.043 104.32H261.843C262.136 105.973 262.723 107.16 263.603 107.88C264.509 108.573 265.709 108.92 267.203 108.92C268.643 108.92 269.776 108.787 270.603 108.52C271.429 108.253 272.109 107.987 272.643 107.72L273.963 110.8C273.429 111.147 272.603 111.507 271.483 111.88C270.363 112.227 268.896 112.4 267.083 112.4ZM261.843 101.32H270.963C270.989 99.5867 270.603 98.4 269.803 97.76C269.003 97.12 267.963 96.8 266.683 96.8C265.349 96.8 264.256 97.16 263.403 97.88C262.576 98.5733 262.056 99.72 261.843 101.32ZM290.103 112.4C289.036 112.4 288.063 112.227 287.183 111.88C286.303 111.507 285.556 111.04 284.943 110.48C284.356 109.92 283.916 109.347 283.623 108.76L283.543 112H279.383V82.6H283.623V93.92L283.423 97.04C283.716 96.3467 284.209 95.7067 284.903 95.12C285.596 94.5333 286.409 94.0667 287.343 93.72C288.303 93.3467 289.316 93.16 290.383 93.16C292.223 93.16 293.809 93.5733 295.143 94.4C296.476 95.2 297.503 96.3333 298.223 97.8C298.943 99.24 299.303 100.92 299.303 102.84C299.303 104.84 298.876 106.56 298.023 108C297.169 109.413 296.049 110.507 294.663 111.28C293.276 112.027 291.756 112.4 290.103 112.4ZM289.383 108.8C291.196 108.8 292.543 108.227 293.423 107.08C294.329 105.933 294.783 104.52 294.783 102.84C294.783 101.107 294.329 99.68 293.423 98.56C292.543 97.4133 291.196 96.84 289.383 96.84C288.423 96.84 287.529 97.08 286.703 97.56C285.876 98.0133 285.209 98.6667 284.703 99.52C284.223 100.373 283.983 101.387 283.983 102.56V102.84C284.009 104.013 284.263 105.053 284.743 105.96C285.223 106.867 285.863 107.573 286.663 108.08C287.489 108.56 288.396 108.8 289.383 108.8ZM312.03 112.4C310.404 112.4 308.884 112.013 307.47 111.24C306.084 110.467 304.964 109.36 304.11 107.92C303.257 106.48 302.83 104.76 302.83 102.76C302.83 100.84 303.19 99.16 303.91 97.72C304.657 96.28 305.697 95.16 307.03 94.36C308.39 93.56 310.004 93.16 311.87 93.16C312.99 93.16 314.004 93.36 314.91 93.76C315.844 94.1333 316.617 94.6 317.23 95.16C317.87 95.6933 318.297 96.2133 318.51 96.72L318.59 93.64H322.71V112H318.63L318.55 108.76C318.284 109.347 317.83 109.92 317.19 110.48C316.577 111.04 315.83 111.507 314.95 111.88C314.07 112.227 313.097 112.4 312.03 112.4ZM312.75 108.8C313.737 108.8 314.63 108.573 315.43 108.12C316.257 107.64 316.91 106.973 317.39 106.12C317.897 105.267 318.15 104.253 318.15 103.08V102.8C318.15 101.6 317.897 100.56 317.39 99.68C316.91 98.7733 316.257 98.08 315.43 97.6C314.63 97.0933 313.737 96.84 312.75 96.84C310.964 96.84 309.617 97.4133 308.71 98.56C307.83 99.7067 307.39 101.12 307.39 102.8C307.39 104.507 307.83 105.933 308.71 107.08C309.617 108.227 310.964 108.8 312.75 108.8ZM331.431 112V86.52H323.911V82.6H343.471V86.52H335.871V112H331.431ZM351.887 112.4C349.594 112.4 347.727 111.96 346.287 111.08C344.847 110.173 343.794 108.987 343.127 107.52C342.461 106.053 342.127 104.493 342.127 102.84C342.127 100.84 342.527 99.12 343.327 97.68C344.154 96.24 345.287 95.1333 346.727 94.36C348.167 93.56 349.794 93.16 351.607 93.16C354.514 93.16 356.634 93.9733 357.967 95.6C359.301 97.2 359.967 99.36 359.967 102.08C359.967 102.8 359.927 103.547 359.847 104.32H346.647C346.941 105.973 347.527 107.16 348.407 107.88C349.314 108.573 350.514 108.92 352.007 108.92C353.447 108.92 354.581 108.787 355.407 108.52C356.234 108.253 356.914 107.987 357.447 107.72L358.767 110.8C358.234 111.147 357.407 111.507 356.287 111.88C355.167 112.227 353.701 112.4 351.887 112.4ZM346.647 101.32H355.767C355.794 99.5867 355.407 98.4 354.607 97.76C353.807 97.12 352.767 96.8 351.487 96.8C350.154 96.8 349.061 97.16 348.207 97.88C347.381 98.5733 346.861 99.72 346.647 101.32ZM373.056 112.4C371.27 112.4 369.643 112.013 368.176 111.24C366.736 110.467 365.576 109.347 364.696 107.88C363.843 106.413 363.416 104.653 363.416 102.6C363.416 100.68 363.803 99.0133 364.576 97.6C365.376 96.1867 366.483 95.0933 367.896 94.32C369.336 93.5467 370.99 93.16 372.856 93.16C374.403 93.16 375.67 93.36 376.656 93.76C377.67 94.16 378.43 94.5867 378.936 95.04L377.016 98.52C376.91 98.3867 376.696 98.1867 376.376 97.92C376.056 97.6533 375.63 97.4133 375.096 97.2C374.59 96.96 373.963 96.84 373.216 96.84C371.456 96.84 370.136 97.3733 369.256 98.44C368.403 99.5067 367.976 100.88 367.976 102.56C367.976 104.507 368.43 106.04 369.336 107.16C370.27 108.253 371.563 108.8 373.216 108.8C374.096 108.8 374.923 108.68 375.696 108.44C376.47 108.173 377.056 107.893 377.456 107.6L379.016 110.64C378.536 111.013 377.776 111.4 376.736 111.8C375.696 112.2 374.47 112.4 373.056 112.4ZM383.129 112V93.64H387.369L387.409 97C387.889 95.9067 388.662 95 389.729 94.28C390.822 93.5333 392.129 93.16 393.649 93.16C395.622 93.16 397.102 93.5733 398.089 94.4C399.076 95.2 399.729 96.3467 400.049 97.84C400.396 99.3333 400.569 101.107 400.569 103.16V112H396.249V103.28C396.249 101.147 396.036 99.52 395.609 98.4C395.209 97.28 394.262 96.72 392.769 96.72C391.996 96.72 391.196 96.96 390.369 97.44C389.542 97.92 388.849 98.6133 388.289 99.52C387.729 100.427 387.449 101.547 387.449 102.88V112H383.129ZM405.598 112V93.64H410.078V112H405.598ZM407.838 90.2C407.011 90.2 406.318 89.92 405.758 89.36C405.224 88.8 404.958 88.1067 404.958 87.28C404.958 86.5333 405.224 85.8933 405.758 85.36C406.318 84.8267 407.011 84.56 407.838 84.56C408.664 84.56 409.344 84.8267 409.878 85.36C410.438 85.8933 410.718 86.5333 410.718 87.28C410.718 88.1067 410.438 88.8 409.878 89.36C409.344 89.92 408.664 90.2 407.838 90.2ZM424.072 112.4C422.285 112.4 420.659 112.013 419.192 111.24C417.752 110.467 416.592 109.347 415.712 107.88C414.859 106.413 414.432 104.653 414.432 102.6C414.432 100.68 414.819 99.0133 415.592 97.6C416.392 96.1867 417.499 95.0933 418.912 94.32C420.352 93.5467 422.005 93.16 423.872 93.16C425.419 93.16 426.685 93.36 427.672 93.76C428.685 94.16 429.445 94.5867 429.952 95.04L428.032 98.52C427.925 98.3867 427.712 98.1867 427.392 97.92C427.072 97.6533 426.645 97.4133 426.112 97.2C425.605 96.96 424.979 96.84 424.232 96.84C422.472 96.84 421.152 97.3733 420.272 98.44C419.419 99.5067 418.992 100.88 418.992 102.56C418.992 104.507 419.445 106.04 420.352 107.16C421.285 108.253 422.579 108.8 424.232 108.8C425.112 108.8 425.939 108.68 426.712 108.44C427.485 108.173 428.072 107.893 428.472 107.6L430.032 110.64C429.552 111.013 428.792 111.4 427.752 111.8C426.712 112.2 425.485 112.4 424.072 112.4ZM441.718 112.4C440.091 112.4 438.571 112.013 437.158 111.24C435.771 110.467 434.651 109.36 433.798 107.92C432.944 106.48 432.518 104.76 432.518 102.76C432.518 100.84 432.878 99.16 433.598 97.72C434.344 96.28 435.384 95.16 436.718 94.36C438.078 93.56 439.691 93.16 441.558 93.16C442.678 93.16 443.691 93.36 444.598 93.76C445.531 94.1333 446.304 94.6 446.918 95.16C447.558 95.6933 447.984 96.2133 448.198 96.72L448.278 93.64H452.398V112H448.318L448.238 108.76C447.971 109.347 447.518 109.92 446.878 110.48C446.264 111.04 445.518 111.507 444.638 111.88C443.758 112.227 442.784 112.4 441.718 112.4ZM442.438 108.8C443.424 108.8 444.318 108.573 445.118 108.12C445.944 107.64 446.598 106.973 447.078 106.12C447.584 105.267 447.838 104.253 447.838 103.08V102.8C447.838 101.6 447.584 100.56 447.078 99.68C446.598 98.7733 445.944 98.08 445.118 97.6C444.318 97.0933 443.424 96.84 442.438 96.84C440.651 96.84 439.304 97.4133 438.398 98.56C437.518 99.7067 437.078 101.12 437.078 102.8C437.078 104.507 437.518 105.933 438.398 107.08C439.304 108.227 440.651 108.8 442.438 108.8ZM457.745 112V82.6H464.225C466.785 82.6 468.838 82.9733 470.385 83.72C471.932 84.4667 473.052 85.5067 473.745 86.84C474.438 88.1467 474.785 89.6533 474.785 91.36C474.785 94.48 473.878 96.8933 472.065 98.6C470.252 100.28 467.505 101.12 463.825 101.12H462.265V112H457.745ZM462.265 97.16H463.945C465.705 97.16 467.038 96.88 467.945 96.32C468.852 95.76 469.465 95.0667 469.785 94.24C470.105 93.4133 470.265 92.6133 470.265 91.84C470.265 90.9067 470.092 90.04 469.745 89.24C469.398 88.44 468.798 87.7867 467.945 87.28C467.092 86.7733 465.892 86.52 464.345 86.52H462.265V97.16ZM484.333 112.4C482.493 112.4 481.093 112.013 480.133 111.24C479.173 110.467 478.519 109.44 478.173 108.16C477.853 106.88 477.693 105.467 477.693 103.92V93.64H482.013V102.84C482.013 104.253 482.093 105.4 482.253 106.28C482.439 107.16 482.786 107.813 483.293 108.24C483.826 108.64 484.613 108.84 485.653 108.84C486.399 108.84 487.106 108.64 487.773 108.24C488.466 107.813 489.039 107.24 489.493 106.52C489.946 105.773 490.173 104.947 490.173 104.04V93.64H494.453V112H490.933L490.453 109.32C489.786 110.333 488.959 111.107 487.973 111.64C486.986 112.147 485.773 112.4 484.333 112.4ZM499.661 112V82.6H503.941V112H499.661ZM509.147 121.72V93.64H513.307V97.04C513.92 95.9467 514.773 95.0267 515.867 94.28C516.987 93.5333 518.427 93.16 520.187 93.16C521.84 93.16 523.32 93.5067 524.627 94.2C525.933 94.8933 526.96 95.9467 527.707 97.36C528.48 98.7733 528.867 100.56 528.867 102.72C528.867 104.693 528.467 106.413 527.667 107.88C526.867 109.32 525.8 110.44 524.467 111.24C523.133 112.013 521.64 112.4 519.987 112.4C518.413 112.4 517.067 112.12 515.947 111.56C514.827 111 513.947 110.227 513.307 109.24V121.72H509.147ZM518.987 108.76C520.8 108.76 522.147 108.187 523.027 107.04C523.933 105.893 524.387 104.493 524.387 102.84C524.387 101.107 523.933 99.68 523.027 98.56C522.147 97.44 520.8 96.88 518.987 96.88C518.027 96.88 517.133 97.1067 516.307 97.56C515.48 98.0133 514.813 98.6667 514.307 99.52C513.8 100.373 513.547 101.4 513.547 102.6V102.88C513.547 104.053 513.8 105.093 514.307 106C514.813 106.88 515.48 107.56 516.307 108.04C517.133 108.52 518.027 108.76 518.987 108.76Z" fill="white"/>
<path fill-rule="evenodd" clip-rule="evenodd" d="M55.9897 1.49627C21.9234 9.10392 0.0841945 34.3633 0.000891675 66.2549C-0.0453877 83.9252 1.65769 88.2383 17.3695 110.248C24.8182 120.681 25.3226 122.542 26.1603 142.659L27.0489 164H109.826V139.307H120.131C140.956 139.307 146.85 133.135 146.85 111.325C146.85 97.9429 146.85 97.9408 155.051 94.8932C166.958 90.469 166.97 87.6313 155.164 70.7862C149.319 62.4439 144.527 53.8465 144.513 51.6776C144.474 44.7346 133.862 27.41 124.594 19.1583C107.799 4.20226 78.102 -3.44243 55.9897 1.49627ZM50.7694 19.5781C18.2419 33.106 7.80591 64.9091 26.7365 92.821C39.6762 111.903 42.2771 118.054 44.1028 133.892L45.674 147.538H91.3147V122.844H128.338V105.31C128.338 88.1395 128.472 87.7218 134.702 85.343C138.203 84.0075 141.426 82.7029 141.866 82.4456C142.308 82.1884 139.603 77.9761 135.854 73.0868C132.108 68.1975 128.398 60.561 127.612 56.1142C122.373 26.5046 81.1957 6.92472 50.7694 19.5781Z" fill="#FFFDFD"/>
</svg>
