<svg width="22" height="22" viewBox="0 0 22 22" fill="none" xmlns="http://www.w3.org/2000/svg">
<path fill-rule="evenodd" clip-rule="evenodd" d="M7.5113 0.200719C2.94144 1.22126 0.0117827 4.60971 0.000607896 8.88786C-0.00560031 11.2583 0.222862 11.8368 2.33055 14.7894C3.32976 16.189 3.39743 16.4385 3.5098 19.1371L3.62899 22H14.7333V18.6875H16.1156C18.9093 18.6875 19.6999 17.8596 19.6999 14.9338C19.6999 13.1387 19.6999 13.1384 20.8 12.7296C22.3973 12.1361 22.3989 11.7554 20.8152 9.49571C20.0311 8.37662 19.3882 7.22331 19.3864 6.93236C19.3811 6.00098 17.9575 3.67696 16.7143 2.57001C14.4614 0.563718 10.4776 -0.461789 7.5113 0.200719ZM6.81101 2.62633C2.44757 4.44105 1.04762 8.70732 3.58709 12.4516C5.3229 15.0114 5.67181 15.8365 5.91672 17.9612L6.12749 19.7916H12.25V16.4791H17.2166V14.1269C17.2166 11.8236 17.2346 11.7676 18.0702 11.4485C18.5399 11.2693 18.9723 11.0943 19.0312 11.0598C19.0905 11.0253 18.7277 10.4602 18.2248 9.80433C17.7222 9.14845 17.2247 8.12404 17.1191 7.52751C16.4164 3.5555 10.8926 0.928926 6.81101 2.62633Z" fill="black"/>
</svg>
